<svg width="40" height="40" viewBox="0 0 40 40" fill="none" xmlns="http://www.w3.org/2000/svg">
<g filter="url(#filter0_d_12232_466)">
<path d="M22.0996 19.4238C23.3964 19.4238 24.5094 20.1923 25.0127 21.29L25.4844 22.3203L26.4482 21.7227C26.6768 21.5811 26.9315 21.502 27.2002 21.502C27.9665 21.5021 28.5733 22.105 28.5967 22.833C28.5956 22.8387 28.5949 22.8451 28.5938 22.8516C28.5883 22.8814 28.5808 22.9262 28.5752 22.9785L28.4912 23.7725L29.2461 24.0303C30.2771 24.383 31 25.3304 31 26.4385C30.9998 27.8423 29.8454 28.9998 28.4004 29H18.2002C16.755 29 15.5998 27.8424 15.5996 26.4385C15.5996 25.1057 16.649 23.9997 18.0078 23.8994L19.001 23.8262L18.9316 22.833C18.9278 22.7778 18.9219 22.7287 18.917 22.6914C18.9129 22.6606 18.9063 22.6174 18.9043 22.6035C18.8978 22.5576 18.9004 22.561 18.9004 22.5791C18.9006 20.8457 20.3241 19.424 22.0996 19.4238ZM11.2686 24.9268V24.9248L11.2705 24.918C11.2696 24.9208 11.2695 24.9239 11.2686 24.9268ZM12.1572 22.2871C12.3252 22.5217 12.5143 22.7461 12.7266 22.9561C12.9019 23.1296 13.088 23.2875 13.2812 23.4307C13.2561 23.471 13.2302 23.5109 13.2061 23.5518L11.5469 24.0986L12.1572 22.2871ZM16.4004 17.1943C16.9819 17.1944 17.5092 17.4261 17.8965 17.7988C16.8864 18.6723 16.1566 19.8567 15.8555 21.2021C15.793 21.231 15.7322 21.2617 15.6719 21.292C14.8388 20.9968 14.2502 20.2129 14.25 19.3076C14.25 18.1536 15.2048 17.1943 16.4004 17.1943ZM11.2734 18.4541C11.1784 19.0182 11.1777 19.5949 11.2725 20.1592L9.55273 19.3076L11.2734 18.4541ZM13.374 15.1182C13.1474 15.2792 12.9303 15.4596 12.7266 15.6611C12.5146 15.8704 12.326 16.0943 12.1582 16.3281L11.5469 14.5156L13.374 15.1182ZM20.6328 16.3281C20.4707 16.0967 20.2861 15.8718 20.0732 15.6611C19.8693 15.4594 19.6517 15.2793 19.4248 15.1182L21.2471 14.5166L20.6328 16.3281ZM17.2627 14.2275C16.6914 14.1329 16.1074 14.1337 15.5361 14.2285L16.3984 12.5215L17.2627 14.2275Z" stroke="black" stroke-width="2" shape-rendering="crispEdges"/>
</g>
<defs>
<filter id="filter0_d_12232_466" x="4" y="11" width="32" height="27" filterUnits="userSpaceOnUse" color-interpolation-filters="sRGB">
<feFlood flood-opacity="0" result="BackgroundImageFix"/>
<feColorMatrix in="SourceAlpha" type="matrix" values="0 0 0 0 0 0 0 0 0 0 0 0 0 0 0 0 0 0 127 0" result="hardAlpha"/>
<feOffset dy="4"/>
<feGaussianBlur stdDeviation="2"/>
<feComposite in2="hardAlpha" operator="out"/>
<feColorMatrix type="matrix" values="0 0 0 0 0 0 0 0 0 0 0 0 0 0 0 0 0 0 0.25 0"/>
<feBlend mode="normal" in2="BackgroundImageFix" result="effect1_dropShadow_12232_466"/>
<feBlend mode="normal" in="SourceGraphic" in2="effect1_dropShadow_12232_466" result="shape"/>
</filter>
</defs>
</svg>
