<svg width="40" height="40" viewBox="0 0 40 40" fill="none" xmlns="http://www.w3.org/2000/svg">
<g clip-path="url(#clip0_12232_222)">
<path d="M27.515 23.2173L26.9387 22.641C26.8662 22.5683 26.8254 22.4698 26.8255 22.3671V21.7419C26.8255 21.635 26.7389 21.5484 26.6319 21.5484H26.3387C26.2526 21.5484 26.1766 21.6055 26.1529 21.6877L25.9497 22.3879C25.938 22.4281 25.9135 22.4635 25.88 22.4886C25.8465 22.5137 25.8058 22.5273 25.7639 22.5273H25.58C25.5418 22.5273 25.5044 22.516 25.4727 22.4948C25.4409 22.4736 25.4161 22.4435 25.4015 22.4082L25.1426 21.7865C25.1132 21.7158 25.0636 21.6555 24.9999 21.613C24.9363 21.5706 24.8615 21.5479 24.785 21.5479H24.2C24.1197 21.5479 24.0408 21.5731 23.9755 21.6195L22.8282 22.4368C22.7444 22.4967 22.6535 22.5463 22.5577 22.5844L20.6542 23.346C20.5823 23.3747 20.5207 23.4243 20.4773 23.4884C20.4339 23.5525 20.4108 23.6281 20.4108 23.7055V24.1995C20.4108 24.3021 20.4515 24.4008 20.524 24.4734L21.1003 25.0497C21.2455 25.1948 21.4424 25.2766 21.6476 25.2766H22.1479C22.2113 25.2766 22.2742 25.2689 22.3356 25.2534L23.3648 24.996C23.8061 24.8856 24.2731 25.0148 24.5948 25.3366L25.2244 25.9661C25.3695 26.1113 25.5665 26.1931 25.7716 26.1931H26.5052C26.7103 26.1931 26.9073 26.1113 27.0524 25.9661L27.5155 25.5031C27.6606 25.3579 27.7424 25.161 27.7424 24.9558V23.7645C27.7419 23.5594 27.6602 23.3624 27.515 23.2173ZM20 8C13.3729 8 8 13.3724 8 20C8 26.6276 13.3729 32 20 32C26.6271 32 32 26.6276 32 20C32 13.3724 26.6271 8 20 8ZM20 29.6774C15.1918 29.6774 11.2032 26.1495 10.4585 21.5484H13.4861C13.6913 21.5484 13.8882 21.4666 14.0334 21.3215L14.9755 20.3798C15.1623 20.1931 15.4773 20.2444 15.5953 20.4805L16.6898 22.669C16.821 22.9313 17.089 23.0973 17.3823 23.0973H17.6774C18.1052 23.0973 18.4516 22.7508 18.4516 22.3231V21.8697C18.4516 21.6645 18.3698 21.4676 18.2247 21.3224L17.9508 21.0485C17.7998 20.8976 17.7998 20.6523 17.9508 20.5013L18.2247 20.2274C18.3698 20.0823 18.5668 20.0005 18.7719 20.0005H18.7869C19.0589 20.0005 19.311 19.8577 19.4508 19.6245L20.2913 18.2237C20.3784 18.0785 20.5913 18.0868 20.6668 18.2382C20.6989 18.3025 20.7483 18.3565 20.8094 18.3943C20.8705 18.4321 20.9409 18.4521 21.0127 18.4521H21.1613C21.3752 18.4521 21.5484 18.2789 21.5484 18.065V14.2855C21.5484 13.9923 21.3829 13.7242 21.1206 13.5931L20.5966 13.3313C20.331 13.1982 20.3077 12.8281 20.555 12.6631L22.9821 10.7987C26.8627 12.0587 29.6774 15.7047 29.6774 20C29.6774 25.3361 25.3361 29.6774 20 29.6774Z" fill="#231F20"/>
</g>
<defs>
<clipPath id="clip0_12232_222">
<rect width="24" height="24" fill="white" transform="translate(8 8)"/>
</clipPath>
</defs>
</svg>
